<svg width="800" height="800" viewBox="0 0 800 800" fill="none" xmlns="http://www.w3.org/2000/svg">
<path d="M400 616.3C579.493 616.3 725 519.459 725 400C725 280.541 579.493 183.7 400 183.7C220.507 183.7 75 280.541 75 400C75 519.459 220.507 616.3 400 616.3Z" stroke="white" stroke-width="24" stroke-linecap="round" stroke-linejoin="round"/>
<path d="M161.74 258.842C195.322 274.837 231.255 285.333 268.167 289.928C293.792 288.203 319.178 283.886 343.933 277.043" stroke="white" stroke-width="24" stroke-linecap="round" stroke-linejoin="round"/>
<path d="M648.04 260.238C622.717 277.456 592.552 286.128 561.952 284.987C506.367 284.987 458.193 248.342 408.372 248.342C363.903 248.342 288.555 321.22 288.555 334.397C288.555 347.573 310.378 355.397 328.083 346.748C338.442 341.688 383.25 298.163 419.488 298.163C455.727 298.163 573.132 417.098 583.773 428.273C600.243 445.567 568.333 482.828 547.952 462.44C527.57 442.052 491.132 409.738 491.132 409.738" stroke="white" stroke-width="24" stroke-linecap="round" stroke-linejoin="round"/>
<path d="M723.333 378.043C673.455 383.926 625.131 399.15 580.888 422.92" stroke="white" stroke-width="24" stroke-linecap="round" stroke-linejoin="round"/>
<path d="M543.012 457.592C559.48 474.885 527.57 512.147 507.19 491.758C486.81 471.37 464.167 449.888 464.167 449.888" stroke="white" stroke-width="24" stroke-linecap="round" stroke-linejoin="round"/>
<path d="M502.248 486.912C518.718 504.205 486.808 541.467 466.427 521.078C446.045 500.69 432.667 488.387 432.667 488.387" stroke="white" stroke-width="24" stroke-linecap="round" stroke-linejoin="round"/>
<path d="M403.358 521.927C407.186 526.388 411.985 529.914 417.387 532.233C422.789 534.552 428.651 535.602 434.522 535.303C440.393 535.005 446.117 533.365 451.256 530.51C456.395 527.655 460.812 523.661 464.167 518.833" stroke="white" stroke-width="24" stroke-linecap="round" stroke-linejoin="round"/>
<path d="M403.358 521.927C412.202 510.32 411.525 468.898 365.963 477.133C376.668 456.82 367.06 424.705 326.162 443.645C325.519 437.735 323.022 432.179 319.029 427.774C315.036 423.37 309.752 420.341 303.933 419.123C298.114 417.904 292.059 418.558 286.634 420.991C281.209 423.424 276.693 427.511 273.733 432.667C272.897 427.373 270.331 422.506 266.435 418.826C262.539 415.146 257.533 412.86 252.201 412.327C246.868 411.794 241.509 413.043 236.962 415.878C232.414 418.714 228.934 422.977 227.067 428C218.008 446.392 232.007 479.605 261.927 460.938C258.907 493.33 275.927 503.212 306.668 490.585C308.317 522.418 329.452 519.68 344.548 512.27C346.019 518.469 349.29 524.094 353.95 528.439C358.61 532.783 364.451 535.652 370.737 536.684C377.024 537.716 383.476 536.866 389.28 534.24C395.085 531.614 399.983 527.33 403.358 521.927Z" stroke="white" stroke-width="24" stroke-linecap="round" stroke-linejoin="round"/>
<path d="M77.8433 371.308C132.07 375.386 184.222 393.882 228.902 424.882" stroke="white" stroke-width="24" stroke-linecap="round" stroke-linejoin="round"/>
</svg>
